<svg width="829" height="80.701" viewBox="0 0 829 80.701" xmlns="http://www.w3.org/2000/svg"><g id="svgGroup" stroke-linecap="round" fill-rule="evenodd" font-size="9pt" stroke="#000" stroke-width="0.25mm" fill="#000" style="stroke:#000;stroke-width:0.25mm;fill:#000"><path d="M 5.239 79.978 A 20.328 20.328 0 0 0 10.7 80.7 Q 17.7 80.7 24.65 77.95 Q 31.6 75.2 37.7 70.25 Q 43.8 65.3 48.55 58.65 Q 53.3 52 56 44.05 Q 58.7 36.1 58.7 27.4 A 43.067 43.067 0 0 0 58.405 22.284 A 34.264 34.264 0 0 0 56.2 13.5 Q 53.7 7.3 48.25 3.65 Q 44.673 1.255 39.568 0.432 A 36.274 36.274 0 0 0 33.8 0 A 43.618 43.618 0 0 0 32.606 0.017 A 38.564 38.564 0 0 0 21.7 1.85 Q 16 3.7 11.65 6.7 A 31.147 31.147 0 0 0 8.098 9.532 A 22.783 22.783 0 0 0 4.85 13.25 A 15.491 15.491 0 0 0 3.287 16.071 A 10.907 10.907 0 0 0 2.4 20.3 A 7.575 7.575 0 0 0 2.409 20.673 A 5.959 5.959 0 0 0 3.75 24.25 Q 5.1 25.9 8.4 25.9 A 10.536 10.536 0 0 1 8.374 25.807 Q 8.282 25.475 8.202 25.1 A 17.45 17.45 0 0 1 8.05 24.3 Q 7.9 23.4 7.9 22.2 Q 7.9 16.7 10.9 12.3 A 19.865 19.865 0 0 1 13.579 9.138 A 22.38 22.38 0 0 1 19.1 5.3 A 23.742 23.742 0 0 1 23.899 3.523 A 27.997 27.997 0 0 1 30.8 2.7 A 26.528 26.528 0 0 1 34.642 2.97 A 20.428 20.428 0 0 1 41.5 5.2 A 15.979 15.979 0 0 1 45.614 8.403 A 19.116 19.116 0 0 1 48.7 12.95 A 20.856 20.856 0 0 1 49.748 15.486 Q 50.562 17.877 50.949 20.736 A 41.556 41.556 0 0 1 51.3 26.3 Q 51.3 33.7 49.15 41.15 Q 47 48.6 43.1 55.25 A 64.443 64.443 0 0 1 42.855 55.665 A 58.108 58.108 0 0 1 34.05 67.05 A 48.043 48.043 0 0 1 31.925 69.052 A 41.022 41.022 0 0 1 22.95 75.15 Q 17 78.1 10.6 78.1 Q 9.6 78.1 8.65 78 A 36.101 36.101 0 0 1 8.627 77.998 Q 7.683 77.898 6.3 77.7 Q 7.9 70.5 10.3 61.7 A 462.516 462.516 0 0 1 10.908 59.493 A 507.006 507.006 0 0 1 15.6 43.65 Q 18.5 34.4 21.65 25.7 Q 24.8 17 27.9 9.8 A 6.026 6.026 0 0 0 26.806 9.172 A 4.245 4.245 0 0 0 25.1 8.8 A 3.81 3.81 0 0 0 23.411 9.195 A 4.966 4.966 0 0 0 22.3 9.95 A 11.455 11.455 0 0 0 21.664 10.559 A 12.846 12.846 0 0 0 20 12.7 A 29.87 29.87 0 0 0 19.461 13.597 A 25.53 25.53 0 0 0 18.3 15.85 A 86.365 86.365 0 0 0 17.994 16.536 Q 17.53 17.588 17.3 18.2 Q 16.6 20.1 15.3 23.8 Q 14 27.5 12.4 32.4 Q 10.8 37.3 9.05 42.95 Q 7.3 48.6 5.6 54.45 Q 3.9 60.3 2.45 65.85 Q 1 71.4 0 76.2 A 11.561 11.561 0 0 0 1.26 77.693 A 8.486 8.486 0 0 0 4.8 79.85 A 19.053 19.053 0 0 0 5.239 79.978 Z M 187.5 80.7 Q 182.1 80.7 177.3 78.75 Q 172.5 76.8 169.55 72.8 A 14.771 14.771 0 0 1 166.981 66.855 A 20.583 20.583 0 0 1 166.6 62.8 A 21.421 21.421 0 0 1 166.8 59.775 Q 167.031 58.162 167.527 56.848 A 9.522 9.522 0 0 1 168.65 54.7 Q 170.7 51.8 173.7 50.6 A 17.756 17.756 0 0 1 176.58 49.71 A 13.479 13.479 0 0 1 179.4 49.4 Q 176.7 52.3 175.3 55.8 Q 173.9 59.3 173.9 62.8 Q 173.9 66.5 175.55 69.7 Q 177.2 72.9 180.6 74.85 Q 183.562 76.549 187.889 76.768 A 25.943 25.943 0 0 0 189.2 76.8 Q 193.7 76.8 198 75.15 A 17.853 17.853 0 0 0 202.873 72.38 A 16.15 16.15 0 0 0 205.05 70.25 Q 207.8 67 207.8 62.2 A 14.064 14.064 0 0 0 207.292 58.345 A 11.507 11.507 0 0 0 205.6 54.8 A 21.997 21.997 0 0 0 201.449 50.424 A 26.106 26.106 0 0 0 199.95 49.3 A 91.009 91.009 0 0 0 193.568 45.254 A 100.205 100.205 0 0 0 192.6 44.7 A 84.186 84.186 0 0 1 185.683 40.356 A 77.496 77.496 0 0 1 185.25 40.05 A 23.647 23.647 0 0 1 181.016 36.234 A 21.057 21.057 0 0 1 179.6 34.4 Q 177.4 31.2 177.4 26.7 A 19.8 19.8 0 0 1 178.105 21.572 A 26.216 26.216 0 0 1 179.4 17.9 Q 181.4 13.3 185.15 9.2 Q 188.9 5.1 194.15 2.55 A 25.527 25.527 0 0 1 203.019 0.131 A 31.128 31.128 0 0 1 205.9 0 A 19.092 19.092 0 0 1 208.78 0.201 Q 212.343 0.747 214.036 2.772 A 5.844 5.844 0 0 1 214.1 2.85 Q 216.4 5.7 216.4 10 A 23.867 23.867 0 0 1 216.005 14.224 A 31.691 31.691 0 0 1 215.15 17.75 Q 213.9 21.9 212.1 25.65 A 93.281 93.281 0 0 1 210.778 28.301 Q 209.7 30.375 208.7 32 A 5.668 5.668 0 0 1 207.643 31.662 Q 206.657 31.228 206.15 30.45 A 4.575 4.575 0 0 1 205.47 28.634 A 6.043 6.043 0 0 1 205.4 27.7 Q 205.4 25.933 206.038 23.74 A 22.71 22.71 0 0 1 206.3 22.9 Q 207.2 20.2 208.35 17.3 Q 209.5 14.4 210.4 11.65 Q 211.166 9.309 211.28 7.366 A 11.382 11.382 0 0 0 211.3 6.7 A 5.375 5.375 0 0 0 211.145 5.373 A 3.747 3.747 0 0 0 210.1 3.55 Q 209.077 2.571 206.603 2.426 A 15.465 15.465 0 0 0 205.7 2.4 Q 201 2.4 197 4.6 Q 193 6.8 190 10.25 A 29.534 29.534 0 0 0 186.546 15.102 A 25.67 25.67 0 0 0 185.35 17.5 A 23.135 23.135 0 0 0 184.313 20.362 Q 183.7 22.511 183.7 24.4 A 10.62 10.62 0 0 0 184.263 27.912 A 9.353 9.353 0 0 0 185.85 30.75 A 20.465 20.465 0 0 0 188.844 33.721 A 26.41 26.41 0 0 0 191.4 35.55 A 149.473 149.473 0 0 0 196.753 38.775 A 171.401 171.401 0 0 0 198.65 39.85 Q 202.5 42 205.9 44.6 Q 209.3 47.2 211.45 50.75 A 14.447 14.447 0 0 1 213.238 55.478 A 20.234 20.234 0 0 1 213.6 59.4 Q 213.6 64.6 211.3 68.55 Q 209 72.5 205.15 75.2 Q 201.3 77.9 196.7 79.3 Q 192.1 80.7 187.5 80.7 Z M 324.8 55.7 L 325.8 56.7 Q 324.4 61.6 321.5 65.95 A 33.076 33.076 0 0 1 318.134 70.23 A 26.302 26.302 0 0 1 315.05 73.05 A 15.336 15.336 0 0 1 312.45 74.699 Q 310.215 75.8 308 75.8 Q 305.2 75.8 303.2 73.9 A 12.541 12.541 0 0 1 300.764 70.653 A 15.513 15.513 0 0 1 300.05 69.1 Q 298.9 66.2 298.35 63.15 A 39.77 39.77 0 0 1 297.994 60.796 Q 297.8 59.166 297.8 57.8 Q 298.9 57.8 301 57.25 Q 303.1 56.7 305.3 55.55 Q 307.5 54.4 309.05 52.55 Q 310.6 50.7 310.6 48.2 A 4.716 4.716 0 0 0 310.376 46.711 A 3.819 3.819 0 0 0 309.1 44.9 Q 307.6 43.7 305.6 43.7 A 8.836 8.836 0 0 0 300.74 45.175 A 11.463 11.463 0 0 0 299.8 45.85 A 19.788 19.788 0 0 0 296.714 48.954 A 25.549 25.549 0 0 0 294.95 51.45 Q 292.8 54.9 291.1 58.8 A 107.147 107.147 0 0 0 289.214 63.405 A 86.823 86.823 0 0 0 288.2 66.2 Q 287.06 69.526 286.281 71.768 A 755.136 755.136 0 0 1 286.2 72 A 6.857 6.857 0 0 1 285.788 72.991 Q 285.265 73.999 284.5 74.45 A 4.601 4.601 0 0 1 282.94 75.037 A 4.315 4.315 0 0 1 282.2 75.1 A 3.213 3.213 0 0 1 281.187 74.95 Q 280.283 74.651 279.782 73.759 A 3.315 3.315 0 0 1 279.75 73.7 Q 279 72.3 278.85 70.15 A 63.192 63.192 0 0 1 278.702 66.273 A 69.681 69.681 0 0 1 278.7 65.7 A 38.862 38.862 0 0 1 279.02 60.89 Q 279.326 58.439 279.927 55.71 A 73.103 73.103 0 0 1 280.4 53.7 A 111.61 111.61 0 0 1 282.974 44.986 A 133.177 133.177 0 0 1 284.95 39.55 Q 287.8 32.2 291.2 25.3 Q 294.6 18.4 298 12.8 A 92.724 92.724 0 0 1 300.379 9.073 Q 301.54 7.352 302.635 5.931 A 40.92 40.92 0 0 1 304.3 3.9 Q 307.068 0.751 308.833 0.607 A 2.053 2.053 0 0 1 309 0.6 Q 310.17 0.6 310.955 1.927 A 5.662 5.662 0 0 1 311.25 2.5 Q 312.019 4.22 312.092 6.594 A 16.443 16.443 0 0 1 312.1 7.1 Q 312.1 10.5 310.6 14.75 A 39.161 39.161 0 0 1 308.02 20.484 A 47.444 47.444 0 0 1 306.35 23.3 Q 303.6 27.6 299.85 31.4 Q 296.1 35.2 291.7 37.9 Q 288.4 46 286.75 53.65 A 92.741 92.741 0 0 0 285.811 58.62 Q 285.422 61.064 285.246 63.191 A 40.246 40.246 0 0 0 285.1 66.5 Q 286.7 62.5 288.95 57.7 Q 291.2 52.9 294.1 48.5 Q 297 44.1 300.4 41.3 Q 303.8 38.5 307.5 38.5 A 8.571 8.571 0 0 1 313.718 41.02 A 10.267 10.267 0 0 1 313.8 41.1 A 8.568 8.568 0 0 1 316.399 47.285 A 10.458 10.458 0 0 1 316.4 47.4 A 10.347 10.347 0 0 1 316.061 50.105 A 8.221 8.221 0 0 1 314.75 52.85 Q 313.1 55.1 310.75 56.45 A 21.422 21.422 0 0 1 307.592 57.949 A 18.359 18.359 0 0 1 306.05 58.45 Q 303.7 59.1 302.2 59.1 Q 302.282 59.758 302.635 61.296 A 89.051 89.051 0 0 0 302.8 62 A 27.137 27.137 0 0 0 303.595 64.686 A 33.617 33.617 0 0 0 304.25 66.4 A 16.237 16.237 0 0 0 305.461 68.782 A 13.167 13.167 0 0 0 306.6 70.35 A 4.959 4.959 0 0 0 307.837 71.419 A 4.146 4.146 0 0 0 310 72 A 7.8 7.8 0 0 0 314.014 70.864 A 10.765 10.765 0 0 0 315.5 69.8 A 21.611 21.611 0 0 0 317.96 67.329 Q 319.238 65.833 320.45 63.95 A 53.189 53.189 0 0 0 323.217 59.083 A 66.128 66.128 0 0 0 324.8 55.7 Z M 784.3 55.8 L 785.5 56.7 Q 783.6 61.8 780.3 65.85 A 33.02 33.02 0 0 1 776.722 69.625 A 25.676 25.676 0 0 1 773.25 72.25 A 17.904 17.904 0 0 1 770.487 73.683 Q 768.225 74.6 766.1 74.6 A 8.692 8.692 0 0 1 764.197 74.407 Q 763.026 74.144 762.182 73.523 A 4.574 4.574 0 0 1 760.95 72.15 A 10.455 10.455 0 0 1 759.749 69.228 A 9.21 9.21 0 0 1 759.5 67.1 A 15.445 15.445 0 0 1 759.549 65.931 Q 759.649 64.619 759.955 62.854 A 52.643 52.643 0 0 1 760 62.6 Q 760.5 59.801 761.4 56.401 A 77.331 77.331 0 0 1 756.811 63.192 A 66.067 66.067 0 0 1 754.6 65.95 Q 751.568 69.53 748.642 71.797 A 26.353 26.353 0 0 1 747.55 72.6 A 16.321 16.321 0 0 1 745.219 73.967 Q 743.854 74.613 742.547 74.855 A 8.474 8.474 0 0 1 741 75 A 7.361 7.361 0 0 1 738.639 74.599 A 9.263 9.263 0 0 1 737.55 74.15 A 6.565 6.565 0 0 1 735.283 72.31 A 8.468 8.468 0 0 1 734.65 71.4 Q 733.626 69.708 733.514 67.223 A 13.825 13.825 0 0 1 733.5 66.6 A 16.265 16.265 0 0 1 733.829 63.446 Q 734.126 61.943 734.692 60.307 A 30.352 30.352 0 0 1 735.1 59.2 A 41.09 41.09 0 0 1 738.1 53.11 A 48.097 48.097 0 0 1 739.4 51.05 Q 742.1 47 745.6 43.55 A 35.024 35.024 0 0 1 749.862 39.947 A 28.885 28.885 0 0 1 752.9 38.05 A 17.989 17.989 0 0 1 756.558 36.546 A 14.115 14.115 0 0 1 760.4 36 Q 762.5 36 763.65 36.75 A 2.452 2.452 0 0 1 764.758 38.519 A 3.84 3.84 0 0 1 764.8 39.1 A 5.414 5.414 0 0 1 764.791 39.43 Q 764.781 39.581 764.763 39.714 A 2.995 2.995 0 0 1 764.75 39.8 Q 764.7 40.1 764.6 40.5 A 2.757 2.757 0 0 0 763.281 39.402 A 3.453 3.453 0 0 0 763.15 39.35 Q 762.376 39.065 761.303 39.012 A 10.238 10.238 0 0 0 760.8 39 Q 757.6 39 754.55 40.95 A 22.456 22.456 0 0 0 750.424 44.374 A 26.99 26.99 0 0 0 748.95 46.05 Q 746.4 49.2 744.5 52.8 A 45.934 45.934 0 0 0 742.631 56.771 A 36.774 36.774 0 0 0 741.55 59.75 A 29.379 29.379 0 0 0 740.952 61.93 Q 740.5 63.891 740.5 65.4 A 7.868 7.868 0 0 0 740.618 66.807 Q 740.844 68.047 741.5 68.9 Q 742.496 70.195 744.086 70.2 A 3.928 3.928 0 0 0 744.1 70.2 A 5.577 5.577 0 0 0 745.996 69.834 Q 748.063 69.085 750.65 66.8 A 32.998 32.998 0 0 0 753.681 63.717 Q 756.063 60.979 758.5 57.2 A 69.921 69.921 0 0 0 762.636 49.791 A 92.7 92.7 0 0 0 765.7 42.7 Q 767.9 36.9 770.25 30.9 A 362.956 362.956 0 0 1 774.401 20.745 A 329.715 329.715 0 0 1 775 19.35 Q 777.4 13.8 779.65 9.45 Q 781.269 6.32 782.785 4.121 A 26.687 26.687 0 0 1 783.95 2.55 A 13.346 13.346 0 0 1 784.886 1.495 Q 786.375 0 787.6 0 A 1.801 1.801 0 0 1 788.847 0.498 A 2.481 2.481 0 0 1 789 0.65 A 2.24 2.24 0 0 1 789.578 1.934 A 3.03 3.03 0 0 1 789.6 2.3 Q 789.6 3.784 788.181 7.204 A 51.833 51.833 0 0 1 787.95 7.75 Q 786.816 10.397 785.209 13.753 A 267.949 267.949 0 0 1 783.65 16.95 Q 781 22.3 778.1 28.6 Q 775.2 34.9 772.55 41.4 A 117.204 117.204 0 0 0 769.628 49.35 A 98.956 98.956 0 0 0 768.25 53.95 A 51.358 51.358 0 0 0 767.122 59.043 Q 766.665 61.795 766.608 64.292 A 30.986 30.986 0 0 0 766.6 65 A 41.959 41.959 0 0 0 766.624 66.465 Q 766.67 67.789 766.807 68.689 A 8.73 8.73 0 0 0 766.9 69.2 Q 767.2 70.6 768.9 70.6 Q 770.375 70.6 772.194 69.713 A 15.765 15.765 0 0 0 773.8 68.8 Q 776.321 67.18 778.842 64.343 A 37.102 37.102 0 0 0 779.4 63.7 A 30.908 30.908 0 0 0 782.553 59.196 A 39.266 39.266 0 0 0 784.3 55.8 Z M 491.1 55.8 L 492.4 57 A 42.583 42.583 0 0 1 488.393 64.336 A 38.605 38.605 0 0 1 487.3 65.85 A 28.838 28.838 0 0 1 483.943 69.582 A 23.002 23.002 0 0 1 480.7 72.1 A 14.763 14.763 0 0 1 476.555 73.96 A 12.951 12.951 0 0 1 473.2 74.4 A 10.271 10.271 0 0 1 471.236 74.225 Q 470.09 74.001 469.204 73.493 A 5.225 5.225 0 0 1 468.05 72.6 Q 466.3 70.8 466.3 68.1 A 13.124 13.124 0 0 1 466.476 66.022 Q 466.638 65.014 466.949 63.913 A 23.043 23.043 0 0 1 467.1 63.4 Q 467.9 60.8 468.65 58.1 A 21.219 21.219 0 0 0 469.251 55.197 A 16.807 16.807 0 0 0 469.4 53 A 9.726 9.726 0 0 0 469.322 51.725 Q 469.108 50.108 468.3 49.3 A 3.664 3.664 0 0 0 465.65 48.201 A 4.623 4.623 0 0 0 465.6 48.2 A 5.953 5.953 0 0 0 461.868 49.521 A 8.18 8.18 0 0 0 461.1 50.2 Q 459.1 52.2 457.45 55.35 Q 455.8 58.5 454.35 62 Q 452.9 65.5 451.6 68.65 A 44.193 44.193 0 0 1 450.625 70.851 Q 450.12 71.907 449.616 72.789 A 20.912 20.912 0 0 1 449 73.8 Q 447.7 75.8 446.3 75.8 A 2.236 2.236 0 0 1 444.695 75.097 Q 443.994 74.408 443.462 73.042 A 11.663 11.663 0 0 1 443.3 72.6 Q 442.643 70.69 442.379 68.495 A 25.855 25.855 0 0 1 442.2 65.4 Q 442.2 61.731 443.135 57.01 A 72.896 72.896 0 0 1 443.8 54 A 129.608 129.608 0 0 1 446.191 45.477 A 157.921 157.921 0 0 1 448 40.1 Q 450.6 32.8 453.85 25.8 Q 457.1 18.8 460.5 13.1 A 87.584 87.584 0 0 1 462.943 9.225 Q 464.165 7.4 465.331 5.901 A 39.72 39.72 0 0 1 466.9 4 A 19.478 19.478 0 0 1 468.262 2.594 Q 470.416 0.6 472.1 0.6 Q 473.795 0.6 474.559 2.506 A 5.718 5.718 0 0 1 474.65 2.75 Q 475.4 4.9 475.4 6.9 A 15.955 15.955 0 0 1 475.224 9.169 Q 475.059 10.312 474.74 11.603 A 36.141 36.141 0 0 1 474.15 13.7 A 55.096 55.096 0 0 1 472.554 18.106 A 72.98 72.98 0 0 1 470.7 22.25 Q 468.5 26.8 465.6 31.2 A 61.285 61.285 0 0 1 459.512 39.022 A 56.847 56.847 0 0 1 459.3 39.25 A 37.76 37.76 0 0 1 455.983 42.423 A 27.853 27.853 0 0 1 452.4 45 Q 451.2 47.9 450.35 51.5 A 62.247 62.247 0 0 0 449.207 57.686 A 56.757 56.757 0 0 0 449.1 58.55 Q 448.7 62 448.7 64.7 A 41.325 41.325 0 0 0 448.707 65.483 Q 448.714 65.869 448.729 66.209 A 21.261 21.261 0 0 0 448.75 66.6 A 20.408 20.408 0 0 0 448.832 67.561 A 16.896 16.896 0 0 0 448.9 68.1 Q 450.3 64 451.95 60.15 A 67.355 67.355 0 0 1 454.337 55.14 A 57.403 57.403 0 0 1 455.5 53.05 A 40.351 40.351 0 0 1 457.717 49.647 A 32.497 32.497 0 0 1 459.55 47.35 A 19.99 19.99 0 0 1 461.834 45.116 A 15.47 15.47 0 0 1 464.1 43.55 Q 466.5 42.2 469.2 42.2 A 9.404 9.404 0 0 1 471.027 42.367 Q 472.58 42.675 473.65 43.55 Q 475.3 44.9 476.05 46.95 Q 476.8 49 476.8 51.2 Q 476.8 54.3 475.75 57.2 A 152.389 152.389 0 0 1 473.669 62.632 A 140.069 140.069 0 0 1 473.6 62.8 Q 472.5 65.5 472.5 68 A 7.436 7.436 0 0 0 472.567 69.038 Q 472.734 70.221 473.317 70.865 A 2.244 2.244 0 0 0 473.35 70.9 A 2.813 2.813 0 0 0 475.399 71.799 A 3.681 3.681 0 0 0 475.5 71.8 A 5.853 5.853 0 0 0 477.44 71.444 Q 478.24 71.163 479.096 70.66 A 14.947 14.947 0 0 0 480.65 69.6 A 26.056 26.056 0 0 0 483.311 67.219 Q 484.578 65.929 485.835 64.346 A 44.523 44.523 0 0 0 486.3 63.75 Q 489.1 60.1 491.1 55.8 Z M 368.5 55.8 L 369.5 56.8 A 37.287 37.287 0 0 1 366.045 63.611 A 32.548 32.548 0 0 1 364.1 66.3 Q 360.8 70.4 357.05 72.7 A 17.14 17.14 0 0 1 353.913 74.232 A 12.358 12.358 0 0 1 349.7 75 A 9.836 9.836 0 0 1 347.626 74.796 Q 346.348 74.52 345.4 73.872 A 5.25 5.25 0 0 1 344.25 72.8 A 8.161 8.161 0 0 1 342.897 70.388 A 7.247 7.247 0 0 1 342.5 68 A 8.603 8.603 0 0 1 342.523 67.384 Q 342.548 67.037 342.6 66.65 Q 342.7 65.9 342.8 65.1 Q 339.981 68.903 337.484 71.459 A 30.925 30.925 0 0 1 334.95 73.8 A 14.686 14.686 0 0 1 332.266 75.568 Q 330.013 76.7 327.7 76.7 Q 324.6 76.7 322.45 74.65 A 6.384 6.384 0 0 1 320.821 72.014 Q 320.479 70.999 320.362 69.76 A 14.414 14.414 0 0 1 320.3 68.4 A 18.649 18.649 0 0 1 320.752 64.42 Q 321.144 62.624 321.877 60.711 A 30.579 30.579 0 0 1 321.9 60.65 A 37.798 37.798 0 0 1 324.955 54.514 A 44.377 44.377 0 0 1 326.3 52.45 Q 329.1 48.4 332.65 45.05 A 33.55 33.55 0 0 1 337.72 41.082 A 29.188 29.188 0 0 1 340.15 39.7 A 19.076 19.076 0 0 1 344.333 38.14 A 15.733 15.733 0 0 1 348 37.7 A 12.227 12.227 0 0 1 351.046 38.062 A 9.203 9.203 0 0 1 354.5 39.75 A 6.51 6.51 0 0 1 357.069 44.473 A 8.351 8.351 0 0 1 357.1 45.2 A 7.213 7.213 0 0 1 357.01 46.383 Q 356.752 47.933 355.75 48.6 Q 354.596 49.37 352.82 49.482 A 9.891 9.891 0 0 1 352.2 49.5 A 18.324 18.324 0 0 0 352.409 48.553 A 23.066 23.066 0 0 0 352.55 47.75 Q 352.7 46.8 352.7 46 A 8.048 8.048 0 0 0 352.466 44.018 A 6.315 6.315 0 0 0 351.6 42.05 A 3.459 3.459 0 0 0 349.73 40.673 Q 348.897 40.4 347.8 40.4 A 8.865 8.865 0 0 0 344.529 41.052 Q 343.399 41.498 342.253 42.249 A 15.426 15.426 0 0 0 342.1 42.35 A 23.691 23.691 0 0 0 338.944 44.914 A 31.64 31.64 0 0 0 336.5 47.55 Q 333.8 50.8 331.7 54.6 A 45.316 45.316 0 0 0 329.284 59.662 A 38.5 38.5 0 0 0 328.4 62.1 A 28.274 28.274 0 0 0 327.623 64.975 Q 327.319 66.415 327.233 67.71 A 15.035 15.035 0 0 0 327.2 68.7 Q 327.2 72.494 329.754 72.598 A 3.589 3.589 0 0 0 329.9 72.6 Q 332.2 72.6 334.9 70.45 A 33.59 33.59 0 0 0 337.464 68.171 Q 338.74 66.922 340.049 65.417 A 56.926 56.926 0 0 0 340.45 64.95 Q 343.3 61.6 345.9 58 Q 348.5 54.4 350.5 51.4 A 9.739 9.739 0 0 1 350.629 51.212 Q 350.866 50.873 350.964 50.813 A 0.072 0.072 0 0 1 351 50.8 A 6.992 6.992 0 0 1 351.409 50.883 Q 351.864 50.987 352.464 51.174 A 22.651 22.651 0 0 1 352.55 51.2 A 6.466 6.466 0 0 1 353.533 51.598 A 5.186 5.186 0 0 1 354.2 52 A 1.808 1.808 0 0 1 354.627 52.418 A 1.48 1.48 0 0 1 354.9 53.3 A 2.51 2.51 0 0 1 354.821 53.892 Q 354.676 54.485 354.266 55.269 A 12.368 12.368 0 0 1 354 55.75 A 145.901 145.901 0 0 0 353.112 57.302 Q 352.584 58.238 352 59.3 Q 350.9 61.3 350 63.35 Q 349.132 65.328 349.101 67.074 A 7.254 7.254 0 0 0 349.1 67.2 A 5.859 5.859 0 0 0 349.628 69.605 A 7.159 7.159 0 0 0 349.9 70.15 A 2.722 2.722 0 0 0 350.87 71.191 Q 351.386 71.505 352.067 71.578 A 4.039 4.039 0 0 0 352.5 71.6 A 5.135 5.135 0 0 0 354.253 71.252 Q 356.506 70.428 359.6 67.65 A 31.332 31.332 0 0 0 362.845 64.217 Q 364.38 62.348 365.928 60.006 A 74.771 74.771 0 0 0 368.5 55.8 Z M 737.1 55.8 L 738.1 56.8 A 37.287 37.287 0 0 1 734.645 63.611 A 32.548 32.548 0 0 1 732.7 66.3 Q 729.4 70.4 725.65 72.7 A 17.14 17.14 0 0 1 722.513 74.232 A 12.358 12.358 0 0 1 718.3 75 A 9.836 9.836 0 0 1 716.226 74.796 Q 714.948 74.52 714 73.872 A 5.25 5.25 0 0 1 712.85 72.8 A 8.161 8.161 0 0 1 711.497 70.388 A 7.247 7.247 0 0 1 711.1 68 A 8.603 8.603 0 0 1 711.123 67.384 Q 711.148 67.037 711.2 66.65 Q 711.3 65.9 711.4 65.1 Q 708.581 68.903 706.084 71.459 A 30.925 30.925 0 0 1 703.55 73.8 A 14.686 14.686 0 0 1 700.866 75.568 Q 698.613 76.7 696.3 76.7 Q 693.2 76.7 691.05 74.65 A 6.384 6.384 0 0 1 689.421 72.014 Q 689.079 70.999 688.962 69.76 A 14.414 14.414 0 0 1 688.9 68.4 A 18.649 18.649 0 0 1 689.352 64.42 Q 689.744 62.624 690.477 60.711 A 30.579 30.579 0 0 1 690.5 60.65 A 37.798 37.798 0 0 1 693.555 54.514 A 44.377 44.377 0 0 1 694.9 52.45 Q 697.7 48.4 701.25 45.05 A 33.55 33.55 0 0 1 706.32 41.082 A 29.188 29.188 0 0 1 708.75 39.7 A 19.076 19.076 0 0 1 712.933 38.14 A 15.733 15.733 0 0 1 716.6 37.7 A 12.227 12.227 0 0 1 719.646 38.062 A 9.203 9.203 0 0 1 723.1 39.75 A 6.51 6.51 0 0 1 725.669 44.473 A 8.351 8.351 0 0 1 725.7 45.2 A 7.213 7.213 0 0 1 725.61 46.383 Q 725.352 47.933 724.35 48.6 Q 723.196 49.37 721.42 49.482 A 9.891 9.891 0 0 1 720.8 49.5 A 18.324 18.324 0 0 0 721.009 48.553 A 23.066 23.066 0 0 0 721.15 47.75 Q 721.3 46.8 721.3 46 A 8.048 8.048 0 0 0 721.066 44.018 A 6.315 6.315 0 0 0 720.2 42.05 A 3.459 3.459 0 0 0 718.33 40.673 Q 717.497 40.4 716.4 40.4 A 8.865 8.865 0 0 0 713.129 41.052 Q 711.999 41.498 710.853 42.249 A 15.426 15.426 0 0 0 710.7 42.35 A 23.691 23.691 0 0 0 707.544 44.914 A 31.64 31.64 0 0 0 705.1 47.55 Q 702.4 50.8 700.3 54.6 A 45.316 45.316 0 0 0 697.884 59.662 A 38.5 38.5 0 0 0 697 62.1 A 28.274 28.274 0 0 0 696.223 64.975 Q 695.919 66.415 695.833 67.71 A 15.035 15.035 0 0 0 695.8 68.7 Q 695.8 72.494 698.354 72.598 A 3.589 3.589 0 0 0 698.5 72.6 Q 700.8 72.6 703.5 70.45 A 33.59 33.59 0 0 0 706.064 68.171 Q 707.34 66.922 708.649 65.417 A 56.926 56.926 0 0 0 709.05 64.95 Q 711.9 61.6 714.5 58 Q 717.1 54.4 719.1 51.4 A 9.739 9.739 0 0 1 719.229 51.212 Q 719.466 50.873 719.564 50.813 A 0.072 0.072 0 0 1 719.6 50.8 A 6.992 6.992 0 0 1 720.009 50.883 Q 720.464 50.987 721.064 51.174 A 22.651 22.651 0 0 1 721.15 51.2 A 6.466 6.466 0 0 1 722.133 51.598 A 5.186 5.186 0 0 1 722.8 52 A 1.808 1.808 0 0 1 723.227 52.418 A 1.48 1.48 0 0 1 723.5 53.3 A 2.51 2.51 0 0 1 723.421 53.892 Q 723.276 54.485 722.866 55.269 A 12.368 12.368 0 0 1 722.6 55.75 A 145.901 145.901 0 0 0 721.712 57.302 Q 721.184 58.238 720.6 59.3 Q 719.5 61.3 718.6 63.35 Q 717.732 65.328 717.701 67.074 A 7.254 7.254 0 0 0 717.7 67.2 A 5.859 5.859 0 0 0 718.228 69.605 A 7.159 7.159 0 0 0 718.5 70.15 A 2.722 2.722 0 0 0 719.47 71.191 Q 719.986 71.505 720.667 71.578 A 4.039 4.039 0 0 0 721.1 71.6 A 5.135 5.135 0 0 0 722.853 71.252 Q 725.106 70.428 728.2 67.65 A 31.332 31.332 0 0 0 731.445 64.217 Q 732.98 62.348 734.528 60.006 A 74.771 74.771 0 0 0 737.1 55.8 Z M 828 55.8 L 829 56.8 A 37.287 37.287 0 0 1 825.545 63.611 A 32.548 32.548 0 0 1 823.6 66.3 Q 820.3 70.4 816.55 72.7 A 17.14 17.14 0 0 1 813.413 74.232 A 12.358 12.358 0 0 1 809.2 75 A 9.836 9.836 0 0 1 807.126 74.796 Q 805.848 74.52 804.9 73.872 A 5.25 5.25 0 0 1 803.75 72.8 A 8.161 8.161 0 0 1 802.397 70.388 A 7.247 7.247 0 0 1 802 68 A 8.603 8.603 0 0 1 802.023 67.384 Q 802.048 67.037 802.1 66.65 Q 802.2 65.9 802.3 65.1 Q 799.481 68.903 796.984 71.459 A 30.925 30.925 0 0 1 794.45 73.8 A 14.686 14.686 0 0 1 791.766 75.568 Q 789.513 76.7 787.2 76.7 Q 784.1 76.7 781.95 74.65 A 6.384 6.384 0 0 1 780.321 72.014 Q 779.979 70.999 779.862 69.76 A 14.414 14.414 0 0 1 779.8 68.4 A 18.649 18.649 0 0 1 780.252 64.42 Q 780.644 62.624 781.377 60.711 A 30.579 30.579 0 0 1 781.4 60.65 A 37.798 37.798 0 0 1 784.455 54.514 A 44.377 44.377 0 0 1 785.8 52.45 Q 788.6 48.4 792.15 45.05 A 33.55 33.55 0 0 1 797.22 41.082 A 29.188 29.188 0 0 1 799.65 39.7 A 19.076 19.076 0 0 1 803.833 38.14 A 15.733 15.733 0 0 1 807.5 37.7 A 12.227 12.227 0 0 1 810.546 38.062 A 9.203 9.203 0 0 1 814 39.75 A 6.51 6.51 0 0 1 816.569 44.473 A 8.351 8.351 0 0 1 816.6 45.2 A 7.213 7.213 0 0 1 816.51 46.383 Q 816.252 47.933 815.25 48.6 Q 814.096 49.37 812.32 49.482 A 9.891 9.891 0 0 1 811.7 49.5 A 18.324 18.324 0 0 0 811.909 48.553 A 23.066 23.066 0 0 0 812.05 47.75 Q 812.2 46.8 812.2 46 A 8.048 8.048 0 0 0 811.966 44.018 A 6.315 6.315 0 0 0 811.1 42.05 A 3.459 3.459 0 0 0 809.23 40.673 Q 808.397 40.4 807.3 40.4 A 8.865 8.865 0 0 0 804.029 41.052 Q 802.899 41.498 801.753 42.249 A 15.426 15.426 0 0 0 801.6 42.35 A 23.691 23.691 0 0 0 798.444 44.914 A 31.64 31.64 0 0 0 796 47.55 Q 793.3 50.8 791.2 54.6 A 45.316 45.316 0 0 0 788.784 59.662 A 38.5 38.5 0 0 0 787.9 62.1 A 28.274 28.274 0 0 0 787.123 64.975 Q 786.819 66.415 786.733 67.71 A 15.035 15.035 0 0 0 786.7 68.7 Q 786.7 72.494 789.254 72.598 A 3.589 3.589 0 0 0 789.4 72.6 Q 791.7 72.6 794.4 70.45 A 33.59 33.59 0 0 0 796.964 68.171 Q 798.24 66.922 799.549 65.417 A 56.926 56.926 0 0 0 799.95 64.95 Q 802.8 61.6 805.4 58 Q 808 54.4 810 51.4 A 9.739 9.739 0 0 1 810.129 51.212 Q 810.366 50.873 810.464 50.813 A 0.072 0.072 0 0 1 810.5 50.8 A 6.992 6.992 0 0 1 810.909 50.883 Q 811.364 50.987 811.964 51.174 A 22.651 22.651 0 0 1 812.05 51.2 A 6.466 6.466 0 0 1 813.033 51.598 A 5.186 5.186 0 0 1 813.7 52 A 1.808 1.808 0 0 1 814.127 52.418 A 1.48 1.48 0 0 1 814.4 53.3 A 2.51 2.51 0 0 1 814.321 53.892 Q 814.176 54.485 813.766 55.269 A 12.368 12.368 0 0 1 813.5 55.75 A 145.901 145.901 0 0 0 812.612 57.302 Q 812.084 58.238 811.5 59.3 Q 810.4 61.3 809.5 63.35 Q 808.632 65.328 808.601 67.074 A 7.254 7.254 0 0 0 808.6 67.2 A 5.859 5.859 0 0 0 809.128 69.605 A 7.159 7.159 0 0 0 809.4 70.15 A 2.722 2.722 0 0 0 810.37 71.191 Q 810.886 71.505 811.567 71.578 A 4.039 4.039 0 0 0 812 71.6 A 5.135 5.135 0 0 0 813.753 71.252 Q 816.006 70.428 819.1 67.65 A 31.332 31.332 0 0 0 822.345 64.217 Q 823.88 62.348 825.428 60.006 A 74.771 74.771 0 0 0 828 55.8 Z M 535.7 42.4 L 534.7 42.4 Q 531.7 52.7 528.95 62.7 Q 526.244 72.542 523.973 80.446 A 1156.394 1156.394 0 0 1 523.9 80.7 Q 521.4 80.7 519.2 79.3 A 5.745 5.745 0 0 1 518.04 78.347 A 3.794 3.794 0 0 1 517 75.7 A 6.097 6.097 0 0 1 517.07 74.812 Q 517.136 74.366 517.264 73.864 A 13.531 13.531 0 0 1 517.5 73.05 Q 518 71.5 518.4 70.2 Q 521.6 60.4 524.4 51.9 A 945.737 945.737 0 0 1 529.913 35.651 A 871.503 871.503 0 0 1 530 35.4 Q 532.8 27.4 535.95 19.4 A 375.448 375.448 0 0 1 540.866 7.539 A 437.899 437.899 0 0 1 543 2.7 Q 539.2 3.4 536.25 4.75 A 84.359 84.359 0 0 0 534.358 5.643 Q 533.52 6.052 532.805 6.429 A 35.095 35.095 0 0 0 531.5 7.15 A 23.051 23.051 0 0 1 530.867 7.507 Q 529.873 8.046 529.357 8.166 A 1.156 1.156 0 0 1 529.1 8.2 A 1.037 1.037 0 0 1 528.847 8.165 Q 528.489 8.074 527.95 7.75 Q 527.2 7.3 526.6 6.65 A 3.635 3.635 0 0 1 526.324 6.316 Q 526.058 5.948 526.01 5.634 A 0.892 0.892 0 0 1 526 5.5 Q 528.6 4.4 532.15 3.1 Q 535.7 1.8 539.8 0.9 Q 543.9 0 548.1 0 A 34.651 34.651 0 0 1 556.198 0.986 A 38.946 38.946 0 0 1 557.05 1.2 Q 561.6 2.4 565.4 4.85 A 20.15 20.15 0 0 1 570.823 9.911 A 19.26 19.26 0 0 1 571.5 10.9 A 14.629 14.629 0 0 1 573.69 17.258 A 18.527 18.527 0 0 1 573.8 19.3 A 19.713 19.713 0 0 1 573.328 23.715 A 15.038 15.038 0 0 1 571.5 28.25 Q 569.2 32 565.4 34.55 Q 561.6 37.1 557.2 38.65 Q 552.8 40.2 548.45 41.05 Q 544.712 41.781 541.675 42.068 A 46.722 46.722 0 0 1 540.7 42.15 Q 537.3 42.4 535.7 42.4 Z M 414.9 41.8 L 414.9 40 Q 415.7 40.1 416.8 40.2 Q 417.827 40.294 419.115 40.387 A 180.465 180.465 0 0 0 419.3 40.4 Q 421.4 35 423.8 29.95 Q 426.2 24.9 428.55 20.95 Q 430.326 17.965 431.988 15.893 A 25.255 25.255 0 0 1 433.05 14.65 A 14.304 14.304 0 0 1 434.022 13.678 Q 435.552 12.3 436.7 12.3 A 2.174 2.174 0 0 1 438.089 12.8 A 2.751 2.751 0 0 1 438.15 12.85 A 1.752 1.752 0 0 1 438.708 13.752 Q 438.8 14.087 438.8 14.5 A 4.378 4.378 0 0 1 438.669 15.485 Q 438.313 17.001 436.994 19.503 A 43.938 43.938 0 0 1 436.7 20.05 Q 435.256 22.697 433.34 26.03 A 501.112 501.112 0 0 1 431.5 29.2 A 134.642 134.642 0 0 0 427.332 36.913 A 158.425 158.425 0 0 0 425.5 40.7 L 427.35 40.7 L 429.2 40.7 Q 432.5 40.7 436.15 40.6 Q 439.8 40.5 443.5 40.1 L 443.5 41.9 A 302.508 302.508 0 0 1 438.596 42.397 Q 436.29 42.611 434.233 42.759 A 177.381 177.381 0 0 1 433.65 42.8 Q 429.3 43.1 425.9 43.1 L 425.15 43.1 L 424.4 43.1 Q 422.1 48.4 420.5 54 A 41.313 41.313 0 0 0 419.041 61.727 A 36.128 36.128 0 0 0 418.9 64.9 A 22.505 22.505 0 0 0 418.992 67.012 Q 419.19 69.11 419.818 70.398 A 4.765 4.765 0 0 0 420.2 71.05 Q 421.5 72.9 424.5 72.9 A 12.647 12.647 0 0 0 430.287 71.445 Q 432.095 70.525 433.878 69.024 A 24.857 24.857 0 0 0 434.7 68.3 A 33.464 33.464 0 0 0 439.262 63.07 Q 441.541 59.874 443.5 55.8 L 444.8 56.8 Q 442.4 62.4 438.75 66.9 A 32.78 32.78 0 0 1 434.215 71.522 A 27.222 27.222 0 0 1 430.7 74 A 18.697 18.697 0 0 1 425.262 76.196 A 16.71 16.71 0 0 1 421.6 76.6 A 11.866 11.866 0 0 1 418.993 76.331 Q 416.545 75.78 415 74.1 A 7.904 7.904 0 0 1 413.349 71.229 Q 412.7 69.304 412.7 66.7 Q 412.7 63.519 413.563 59.265 A 69.769 69.769 0 0 1 414.35 55.85 Q 416 49.4 418.5 42.6 Q 417.5 42.4 416.6 42.25 Q 415.7 42.1 414.9 41.8 Z M 415 55.8 L 416.1 57.1 A 56.018 56.018 0 0 1 413.579 62.265 A 44.946 44.946 0 0 1 411.4 65.8 A 27.462 27.462 0 0 1 408.764 69.106 A 20.479 20.479 0 0 1 405.7 71.8 Q 402.6 74 398.8 74 Q 396.406 74 394.831 73.158 A 5.175 5.175 0 0 1 393.55 72.2 A 6.116 6.116 0 0 1 391.843 68.451 A 8.266 8.266 0 0 1 391.8 67.6 Q 391.8 65.5 392.55 63.2 Q 393.3 60.9 394 58.45 A 18.17 18.17 0 0 0 394.625 55.226 A 15.671 15.671 0 0 0 394.7 53.7 Q 394.7 50.9 393.55 49.85 A 3.986 3.986 0 0 0 391.065 48.813 A 5.228 5.228 0 0 0 390.7 48.8 A 8.365 8.365 0 0 0 387.378 49.52 Q 386.223 50.016 385.055 50.854 A 16.284 16.284 0 0 0 384.4 51.35 A 31.759 31.759 0 0 0 381.056 54.455 A 42.501 42.501 0 0 0 378.2 57.85 Q 375.2 61.8 372.6 66 A 1155.207 1155.207 0 0 0 370.44 69.503 Q 369.454 71.109 368.574 72.555 A 676.735 676.735 0 0 0 368 73.5 Q 366.4 73.5 364.95 72.95 A 5.431 5.431 0 0 1 363.698 72.289 A 4.401 4.401 0 0 1 362.7 71.3 A 1.302 1.302 0 0 1 362.737 71.039 Q 362.897 70.313 363.75 68.2 A 159.879 159.879 0 0 0 364.587 66.082 Q 364.956 65.129 365.359 64.058 A 327.122 327.122 0 0 0 366.2 61.8 Q 367.6 58 368.7 54 A 33.742 33.742 0 0 0 369.452 50.634 Q 369.756 48.816 369.795 47.168 A 20.252 20.252 0 0 0 369.8 46.7 A 4.136 4.136 0 0 1 370.295 46.219 Q 370.843 45.763 371.687 45.308 A 13.096 13.096 0 0 1 371.7 45.3 A 5.691 5.691 0 0 1 373.922 44.621 A 5.515 5.515 0 0 1 374.4 44.6 A 4.051 4.051 0 0 1 375.452 44.725 Q 376.82 45.094 377.052 46.555 A 4.109 4.109 0 0 1 377.1 47.2 Q 377.1 48.774 376.23 52.426 A 78.551 78.551 0 0 1 376.2 52.55 A 82.123 82.123 0 0 1 374.88 57.375 A 97.759 97.759 0 0 1 373.9 60.4 A 92.214 92.214 0 0 1 379.123 53.264 A 102.333 102.333 0 0 1 379.95 52.25 A 40.271 40.271 0 0 1 384.313 47.715 A 33.722 33.722 0 0 1 387.1 45.5 A 16.272 16.272 0 0 1 390.18 43.755 A 11.532 11.532 0 0 1 394.7 42.8 A 8.504 8.504 0 0 1 396.928 43.074 A 5.632 5.632 0 0 1 400.35 45.6 Q 402.1 48.4 402.1 51.8 A 16.878 16.878 0 0 1 401.627 55.85 A 14.919 14.919 0 0 1 401.1 57.55 A 126.279 126.279 0 0 1 399.312 62.035 A 115.236 115.236 0 0 1 399.05 62.65 A 12.703 12.703 0 0 0 398.043 66.587 A 11.87 11.87 0 0 0 398 67.6 Q 398 69.408 398.63 70.29 A 2.069 2.069 0 0 0 398.85 70.55 A 2.871 2.871 0 0 0 400.797 71.395 A 3.82 3.82 0 0 0 401 71.4 A 5.866 5.866 0 0 0 403.578 70.776 Q 404.411 70.372 405.243 69.708 A 12.367 12.367 0 0 0 406 69.05 Q 408.422 66.774 410.703 63.324 A 45.221 45.221 0 0 0 410.85 63.1 Q 413.2 59.5 415 55.8 Z M 646.8 55.8 L 647.9 57.1 A 56.018 56.018 0 0 1 645.379 62.265 A 44.946 44.946 0 0 1 643.2 65.8 A 27.462 27.462 0 0 1 640.564 69.106 A 20.479 20.479 0 0 1 637.5 71.8 Q 634.4 74 630.6 74 Q 628.206 74 626.631 73.158 A 5.175 5.175 0 0 1 625.35 72.2 A 6.116 6.116 0 0 1 623.643 68.451 A 8.266 8.266 0 0 1 623.6 67.6 Q 623.6 65.5 624.35 63.2 Q 625.1 60.9 625.8 58.45 A 18.17 18.17 0 0 0 626.425 55.226 A 15.671 15.671 0 0 0 626.5 53.7 Q 626.5 50.9 625.35 49.85 A 3.986 3.986 0 0 0 622.865 48.813 A 5.228 5.228 0 0 0 622.5 48.8 A 8.365 8.365 0 0 0 619.178 49.52 Q 618.023 50.016 616.855 50.854 A 16.284 16.284 0 0 0 616.2 51.35 A 31.759 31.759 0 0 0 612.856 54.455 A 42.501 42.501 0 0 0 610 57.85 Q 607 61.8 604.4 66 A 1155.207 1155.207 0 0 0 602.24 69.503 Q 601.254 71.109 600.374 72.555 A 676.735 676.735 0 0 0 599.8 73.5 Q 598.2 73.5 596.75 72.95 A 5.431 5.431 0 0 1 595.498 72.289 A 4.401 4.401 0 0 1 594.5 71.3 A 1.302 1.302 0 0 1 594.537 71.039 Q 594.697 70.313 595.55 68.2 A 159.879 159.879 0 0 0 596.387 66.082 Q 596.756 65.129 597.159 64.058 A 327.122 327.122 0 0 0 598 61.8 Q 599.4 58 600.5 54 A 33.742 33.742 0 0 0 601.252 50.634 Q 601.556 48.816 601.595 47.168 A 20.252 20.252 0 0 0 601.6 46.7 A 4.136 4.136 0 0 1 602.095 46.219 Q 602.643 45.763 603.487 45.308 A 13.096 13.096 0 0 1 603.5 45.3 A 5.691 5.691 0 0 1 605.722 44.621 A 5.515 5.515 0 0 1 606.2 44.6 A 4.051 4.051 0 0 1 607.252 44.725 Q 608.62 45.094 608.852 46.555 A 4.109 4.109 0 0 1 608.9 47.2 Q 608.9 48.774 608.03 52.426 A 78.551 78.551 0 0 1 608 52.55 A 82.123 82.123 0 0 1 606.68 57.375 A 97.759 97.759 0 0 1 605.7 60.4 A 92.214 92.214 0 0 1 610.923 53.264 A 102.333 102.333 0 0 1 611.75 52.25 A 40.271 40.271 0 0 1 616.113 47.715 A 33.722 33.722 0 0 1 618.9 45.5 A 16.272 16.272 0 0 1 621.98 43.755 A 11.532 11.532 0 0 1 626.5 42.8 A 8.504 8.504 0 0 1 628.728 43.074 A 5.632 5.632 0 0 1 632.15 45.6 Q 633.9 48.4 633.9 51.8 A 16.878 16.878 0 0 1 633.427 55.85 A 14.919 14.919 0 0 1 632.9 57.55 A 126.279 126.279 0 0 1 631.112 62.035 A 115.236 115.236 0 0 1 630.85 62.65 A 12.703 12.703 0 0 0 629.843 66.587 A 11.87 11.87 0 0 0 629.8 67.6 Q 629.8 69.408 630.43 70.29 A 2.069 2.069 0 0 0 630.65 70.55 A 2.871 2.871 0 0 0 632.597 71.395 A 3.82 3.82 0 0 0 632.8 71.4 A 5.866 5.866 0 0 0 635.378 70.776 Q 636.211 70.372 637.043 69.708 A 12.367 12.367 0 0 0 637.8 69.05 Q 640.222 66.774 642.503 63.324 A 45.221 45.221 0 0 0 642.65 63.1 Q 645 59.5 646.8 55.8 Z M 693.4 55.8 L 694.5 57.1 A 56.018 56.018 0 0 1 691.979 62.265 A 44.946 44.946 0 0 1 689.8 65.8 A 27.462 27.462 0 0 1 687.164 69.106 A 20.479 20.479 0 0 1 684.1 71.8 Q 681 74 677.2 74 Q 674.806 74 673.231 73.158 A 5.175 5.175 0 0 1 671.95 72.2 A 6.116 6.116 0 0 1 670.243 68.451 A 8.266 8.266 0 0 1 670.2 67.6 Q 670.2 65.5 670.95 63.2 Q 671.7 60.9 672.4 58.45 A 18.17 18.17 0 0 0 673.025 55.226 A 15.671 15.671 0 0 0 673.1 53.7 Q 673.1 50.9 671.95 49.85 A 3.986 3.986 0 0 0 669.465 48.813 A 5.228 5.228 0 0 0 669.1 48.8 A 8.365 8.365 0 0 0 665.778 49.52 Q 664.623 50.016 663.455 50.854 A 16.284 16.284 0 0 0 662.8 51.35 A 31.759 31.759 0 0 0 659.456 54.455 A 42.501 42.501 0 0 0 656.6 57.85 Q 653.6 61.8 651 66 A 1155.207 1155.207 0 0 0 648.84 69.503 Q 647.854 71.109 646.974 72.555 A 676.735 676.735 0 0 0 646.4 73.5 Q 644.8 73.5 643.35 72.95 A 5.431 5.431 0 0 1 642.098 72.289 A 4.401 4.401 0 0 1 641.1 71.3 A 1.302 1.302 0 0 1 641.137 71.039 Q 641.297 70.313 642.15 68.2 A 159.879 159.879 0 0 0 642.987 66.082 Q 643.356 65.129 643.759 64.058 A 327.122 327.122 0 0 0 644.6 61.8 Q 646 58 647.1 54 A 33.742 33.742 0 0 0 647.852 50.634 Q 648.156 48.816 648.195 47.168 A 20.252 20.252 0 0 0 648.2 46.7 A 4.136 4.136 0 0 1 648.695 46.219 Q 649.243 45.763 650.087 45.308 A 13.096 13.096 0 0 1 650.1 45.3 A 5.691 5.691 0 0 1 652.322 44.621 A 5.515 5.515 0 0 1 652.8 44.6 A 4.051 4.051 0 0 1 653.852 44.725 Q 655.22 45.094 655.452 46.555 A 4.109 4.109 0 0 1 655.5 47.2 Q 655.5 48.774 654.63 52.426 A 78.551 78.551 0 0 1 654.6 52.55 A 82.123 82.123 0 0 1 653.28 57.375 A 97.759 97.759 0 0 1 652.3 60.4 A 92.214 92.214 0 0 1 657.523 53.264 A 102.333 102.333 0 0 1 658.35 52.25 A 40.271 40.271 0 0 1 662.713 47.715 A 33.722 33.722 0 0 1 665.5 45.5 A 16.272 16.272 0 0 1 668.58 43.755 A 11.532 11.532 0 0 1 673.1 42.8 A 8.504 8.504 0 0 1 675.328 43.074 A 5.632 5.632 0 0 1 678.75 45.6 Q 680.5 48.4 680.5 51.8 A 16.878 16.878 0 0 1 680.027 55.85 A 14.919 14.919 0 0 1 679.5 57.55 A 126.279 126.279 0 0 1 677.712 62.035 A 115.236 115.236 0 0 1 677.45 62.65 A 12.703 12.703 0 0 0 676.443 66.587 A 11.87 11.87 0 0 0 676.4 67.6 Q 676.4 69.408 677.03 70.29 A 2.069 2.069 0 0 0 677.25 70.55 A 2.871 2.871 0 0 0 679.197 71.395 A 3.82 3.82 0 0 0 679.4 71.4 A 5.866 5.866 0 0 0 681.978 70.776 Q 682.811 70.372 683.643 69.708 A 12.367 12.367 0 0 0 684.4 69.05 Q 686.822 66.774 689.103 63.324 A 45.221 45.221 0 0 0 689.25 63.1 Q 691.6 59.5 693.4 55.8 Z M 600.2 56.1 L 601.4 57.1 A 16.442 16.442 0 0 1 599.627 60.296 A 11.378 11.378 0 0 1 595.75 63.75 Q 592.1 65.7 588.8 65.7 A 12.295 12.295 0 0 1 586.45 65.481 A 11.377 11.377 0 0 1 586.3 65.45 Q 585.1 65.2 584 64.7 Q 580.6 69.2 576.55 72.2 A 18.281 18.281 0 0 1 573.702 73.954 Q 571.952 74.809 570.251 75.077 A 9.929 9.929 0 0 1 568.7 75.2 Q 565.903 75.2 564.164 74.079 A 5.429 5.429 0 0 1 562.6 72.55 A 10.256 10.256 0 0 1 561.003 68.524 A 13.884 13.884 0 0 1 560.8 66.1 A 21.093 21.093 0 0 1 561.339 61.439 A 25.06 25.06 0 0 1 561.8 59.7 Q 562.8 56.4 564.45 53.5 A 21.34 21.34 0 0 1 566.085 51.023 A 15.684 15.684 0 0 1 568.15 48.8 A 8.699 8.699 0 0 1 569.565 47.776 Q 570.519 47.231 571.484 47.069 A 4.926 4.926 0 0 1 572.3 47 A 3.729 3.729 0 0 1 572.978 47.065 A 4.572 4.572 0 0 1 573.35 47.15 A 9.742 9.742 0 0 1 574.337 47.476 A 8.973 8.973 0 0 1 574.4 47.5 Q 573.664 48.154 572.695 49.711 A 28.267 28.267 0 0 0 572.25 50.45 A 33.287 33.287 0 0 0 570.9 53.04 A 43.267 43.267 0 0 0 569.9 55.35 A 52.685 52.685 0 0 0 568.097 60.632 A 48.638 48.638 0 0 0 568.05 60.8 A 25.492 25.492 0 0 0 567.608 62.638 Q 567.435 63.507 567.359 64.273 A 11.477 11.477 0 0 0 567.3 65.4 Q 567.3 68.027 568.066 69.389 A 3.449 3.449 0 0 0 568.3 69.75 Q 569.3 71.1 570.9 71.1 Q 572.816 71.1 575.399 69.227 A 19.47 19.47 0 0 0 575.9 68.85 A 29.963 29.963 0 0 0 578.953 66.107 A 40.525 40.525 0 0 0 581.6 63.1 A 14.503 14.503 0 0 1 578.045 58.729 A 17.942 17.942 0 0 1 577.25 57.05 Q 575.7 53.3 575.7 49.4 Q 575.7 46.1 576.85 43.2 A 11.86 11.86 0 0 1 578.474 40.304 A 10.183 10.183 0 0 1 580.2 38.55 A 8.031 8.031 0 0 1 584.623 36.837 A 10.336 10.336 0 0 1 585.5 36.8 A 11.903 11.903 0 0 1 587.381 36.938 Q 589.95 37.35 591 39 A 8.597 8.597 0 0 1 592.122 41.78 Q 592.374 42.914 592.398 44.227 A 15.237 15.237 0 0 1 592.4 44.5 A 18.954 18.954 0 0 1 591.983 48.344 Q 591.613 50.128 590.916 52.058 A 34.344 34.344 0 0 1 590.5 53.15 Q 588.6 57.9 585.7 62.3 Q 587.5 63.3 589.5 63.3 A 9.435 9.435 0 0 0 591.06 63.162 Q 591.781 63.041 592.568 62.814 A 16.91 16.91 0 0 0 593.1 62.65 A 10.905 10.905 0 0 0 595.396 61.581 A 14.477 14.477 0 0 0 597.05 60.4 A 10.529 10.529 0 0 0 599.264 57.863 A 13.687 13.687 0 0 0 600.2 56.1 Z M 60 61 L 59.1 59.3 Q 60.5 56.7 62.75 51.7 Q 65 46.7 67.2 40.3 A 3.27 3.27 0 0 1 66.2 37.944 A 3.89 3.89 0 0 1 66.2 37.9 A 8.649 8.649 0 0 1 66.47 35.684 A 6.425 6.425 0 0 1 67.9 33 A 16.95 16.95 0 0 1 68.553 32.307 Q 69.511 31.351 70.111 31.153 A 0.926 0.926 0 0 1 70.4 31.1 A 1.888 1.888 0 0 1 70.863 31.153 Q 71.467 31.306 71.621 31.909 A 1.55 1.55 0 0 1 71.65 32.05 Q 71.773 32.83 71.795 33.307 A 4.206 4.206 0 0 1 71.8 33.5 A 1.615 1.615 0 0 1 71.774 33.765 Q 71.696 34.225 71.385 35.085 A 23.542 23.542 0 0 1 71.25 35.45 A 35.513 35.513 0 0 0 71.063 35.954 Q 70.718 36.906 70.701 37.174 A 0.412 0.412 0 0 0 70.7 37.2 Q 70.7 38.6 72.25 39.75 Q 73.582 40.739 75.246 41.949 A 548.033 548.033 0 0 0 75.8 42.35 Q 77.8 43.8 79.35 45.85 A 7.414 7.414 0 0 1 80.654 48.733 Q 80.892 49.791 80.9 51.021 A 13.119 13.119 0 0 1 80.9 51.1 A 14.386 14.386 0 0 1 80.9 51.147 Q 80.89 54.125 79.65 57.2 Q 78.4 60.3 77.15 63.1 A 18.056 18.056 0 0 0 76.438 64.943 Q 75.9 66.622 75.9 68 Q 75.9 69.64 76.647 70.284 A 1.557 1.557 0 0 0 76.8 70.4 A 3.579 3.579 0 0 0 78.478 70.981 A 4.5 4.5 0 0 0 78.9 71 A 8.545 8.545 0 0 0 81.725 70.499 A 11.989 11.989 0 0 0 83.85 69.5 A 25.453 25.453 0 0 0 87.285 67.06 A 30.495 30.495 0 0 0 88.8 65.7 Q 91.2 63.4 93.1 60.85 Q 94.683 58.726 95.572 56.845 A 15.348 15.348 0 0 0 95.9 56.1 L 97.2 57.1 A 35.465 35.465 0 0 1 94.015 62.677 A 43.092 43.092 0 0 1 92 65.35 A 32.321 32.321 0 0 1 86.688 70.563 A 28.946 28.946 0 0 1 84.65 72 A 16.861 16.861 0 0 1 80.407 73.99 A 14.161 14.161 0 0 1 76.3 74.6 A 10.386 10.386 0 0 1 74.134 74.388 Q 72.721 74.086 71.651 73.358 A 6.075 6.075 0 0 1 70.95 72.8 A 5.973 5.973 0 0 1 69.02 68.678 A 8.153 8.153 0 0 1 69 68.1 A 14.471 14.471 0 0 1 69.494 64.432 A 19.162 19.162 0 0 1 70.4 61.8 Q 71.8 58.5 73.15 55.25 A 20.755 20.755 0 0 0 73.973 52.904 Q 74.5 51.025 74.5 49.4 Q 74.5 46.2 72.65 44.65 Q 70.8 43.1 68.9 41.8 Q 66.6 47.7 64.1 53 A 194.074 194.074 0 0 1 62.906 55.488 Q 61.6 58.158 60.59 59.971 A 44.419 44.419 0 0 1 60 61 Z M 220.4 61 L 219.5 59.3 Q 220.9 56.7 223.15 51.7 Q 225.4 46.7 227.6 40.3 A 3.27 3.27 0 0 1 226.6 37.944 A 3.89 3.89 0 0 1 226.6 37.9 A 8.649 8.649 0 0 1 226.87 35.684 A 6.425 6.425 0 0 1 228.3 33 A 16.95 16.95 0 0 1 228.953 32.307 Q 229.911 31.351 230.511 31.153 A 0.926 0.926 0 0 1 230.8 31.1 A 1.888 1.888 0 0 1 231.263 31.153 Q 231.867 31.306 232.021 31.909 A 1.55 1.55 0 0 1 232.05 32.05 Q 232.173 32.83 232.195 33.307 A 4.206 4.206 0 0 1 232.2 33.5 A 1.615 1.615 0 0 1 232.174 33.765 Q 232.096 34.225 231.785 35.085 A 23.542 23.542 0 0 1 231.65 35.45 A 35.513 35.513 0 0 0 231.463 35.954 Q 231.118 36.906 231.101 37.174 A 0.412 0.412 0 0 0 231.1 37.2 Q 231.1 38.6 232.65 39.75 Q 233.982 40.739 235.646 41.949 A 548.033 548.033 0 0 0 236.2 42.35 Q 238.2 43.8 239.75 45.85 A 7.414 7.414 0 0 1 241.054 48.733 Q 241.292 49.791 241.3 51.021 A 13.119 13.119 0 0 1 241.3 51.1 A 14.386 14.386 0 0 1 241.3 51.147 Q 241.29 54.125 240.05 57.2 Q 238.8 60.3 237.55 63.1 A 18.056 18.056 0 0 0 236.838 64.943 Q 236.3 66.622 236.3 68 Q 236.3 69.64 237.047 70.284 A 1.557 1.557 0 0 0 237.2 70.4 A 3.579 3.579 0 0 0 238.878 70.981 A 4.5 4.5 0 0 0 239.3 71 A 8.545 8.545 0 0 0 242.125 70.499 A 11.989 11.989 0 0 0 244.25 69.5 A 25.453 25.453 0 0 0 247.685 67.06 A 30.495 30.495 0 0 0 249.2 65.7 Q 251.6 63.4 253.5 60.85 Q 255.083 58.726 255.972 56.845 A 15.348 15.348 0 0 0 256.3 56.1 L 257.6 57.1 A 35.465 35.465 0 0 1 254.415 62.677 A 43.092 43.092 0 0 1 252.4 65.35 A 32.321 32.321 0 0 1 247.088 70.563 A 28.946 28.946 0 0 1 245.05 72 A 16.861 16.861 0 0 1 240.807 73.99 A 14.161 14.161 0 0 1 236.7 74.6 A 10.386 10.386 0 0 1 234.534 74.388 Q 233.121 74.086 232.051 73.358 A 6.075 6.075 0 0 1 231.35 72.8 A 5.973 5.973 0 0 1 229.42 68.678 A 8.153 8.153 0 0 1 229.4 68.1 A 14.471 14.471 0 0 1 229.894 64.432 A 19.162 19.162 0 0 1 230.8 61.8 Q 232.2 58.5 233.55 55.25 A 20.755 20.755 0 0 0 234.373 52.904 Q 234.9 51.025 234.9 49.4 Q 234.9 46.2 233.05 44.65 Q 231.2 43.1 229.3 41.8 Q 227 47.7 224.5 53 A 194.074 194.074 0 0 1 223.306 55.488 Q 222 58.158 220.99 59.971 A 44.419 44.419 0 0 1 220.4 61 Z M 280.2 55.8 L 281.1 56.8 Q 278.473 64.592 273.752 69.1 A 21.944 21.944 0 0 1 272.75 70 A 21.835 21.835 0 0 1 268.424 72.892 A 15.582 15.582 0 0 1 261.4 74.6 Q 258.254 74.6 256.41 73.006 A 5.932 5.932 0 0 1 255.6 72.15 A 9.016 9.016 0 0 1 253.781 67.605 A 11.798 11.798 0 0 1 253.7 66.2 Q 253.7 64.655 254.084 62.568 A 39.423 39.423 0 0 1 254.55 60.4 A 64.863 64.863 0 0 1 255.827 55.889 A 78.669 78.669 0 0 1 256.8 53.05 A 53.414 53.414 0 0 1 259.821 46.227 A 49.306 49.306 0 0 1 260.05 45.8 A 31.029 31.029 0 0 1 261.717 43.065 Q 262.612 41.761 263.56 40.718 A 17.836 17.836 0 0 1 264 40.25 Q 265.301 38.918 266.564 38.412 A 4.102 4.102 0 0 1 268.1 38.1 A 2.459 2.459 0 0 1 269.01 38.265 A 2.282 2.282 0 0 1 269.65 38.65 A 1.752 1.752 0 0 1 270.208 39.552 Q 270.3 39.887 270.3 40.3 Q 270.3 41.413 268.967 43.817 A 30.151 30.151 0 0 1 268.75 44.2 Q 267.418 46.521 265.68 49.432 A 527.778 527.778 0 0 1 265.1 50.4 Q 263 53.9 261.45 57.75 Q 259.9 61.6 259.9 65.1 A 16.948 16.948 0 0 0 259.966 66.656 Q 260.181 68.982 261.1 69.9 A 3.696 3.696 0 0 0 262.511 70.762 Q 263.096 70.968 263.818 71.049 A 8.857 8.857 0 0 0 264.8 71.1 A 7.976 7.976 0 0 0 267.847 70.456 Q 269.021 69.972 270.242 69.127 A 19.563 19.563 0 0 0 272.05 67.7 A 20.815 20.815 0 0 0 274.469 65.116 Q 277.227 61.677 280.2 55.8 Z M 535.1 40.8 A 54.76 54.76 0 0 0 545.544 39.183 A 60.511 60.511 0 0 0 546.25 39 A 39.65 39.65 0 0 0 555.561 35.258 A 36.83 36.83 0 0 0 556.6 34.65 A 24.857 24.857 0 0 0 562.742 29.466 A 23.147 23.147 0 0 0 564.2 27.55 A 16.696 16.696 0 0 0 567.014 19.52 A 21.039 21.039 0 0 0 567.1 17.6 Q 567.1 12.833 565.113 9.625 A 11.221 11.221 0 0 0 564.55 8.8 Q 562 5.4 557.85 3.75 Q 553.7 2.1 549 2.1 A 109.319 109.319 0 0 0 545.801 9.043 Q 544.277 12.658 542.788 16.789 A 195.163 195.163 0 0 0 541.8 19.6 A 466.198 466.198 0 0 0 535.501 39.429 A 510.223 510.223 0 0 0 535.1 40.8 Z M 453.7 41.1 A 28.296 28.296 0 0 0 456.633 38.424 A 37.783 37.783 0 0 0 459.15 35.5 Q 461.8 32.1 464.1 28.25 A 103.637 103.637 0 0 0 467.269 22.56 A 91.068 91.068 0 0 0 468.2 20.7 A 69.821 69.821 0 0 0 469.622 17.597 Q 470.438 15.688 471 14 Q 472 11 472 9.5 A 3.935 3.935 0 0 0 471.995 9.298 Q 471.98 9.007 471.918 8.882 A 0.282 0.282 0 0 0 471.9 8.85 A 0.323 0.323 0 0 0 471.666 8.705 A 0.471 0.471 0 0 0 471.6 8.7 A 0.775 0.775 0 0 0 471.228 8.83 Q 470.492 9.263 468.99 11.147 A 40.963 40.963 0 0 0 468.75 11.45 A 50.487 50.487 0 0 0 467.195 13.56 Q 466.416 14.671 465.568 15.981 A 118.972 118.972 0 0 0 463.8 18.8 Q 461 23.4 458.3 29.2 Q 455.6 35 453.7 41.1 Z M 293.4 33.9 Q 298 30.2 301.45 25.5 Q 304.9 20.8 306.8 16.45 A 36.86 36.86 0 0 0 307.631 14.391 Q 308.7 11.475 308.7 9.6 Q 308.7 9.1 308.65 8.9 A 0.328 0.328 0 0 0 308.613 8.808 Q 308.556 8.716 308.441 8.703 A 0.356 0.356 0 0 0 308.4 8.7 Q 307.426 8.7 305.078 12.018 A 43.057 43.057 0 0 0 304.95 12.2 Q 303.304 14.552 301.364 17.919 A 144.091 144.091 0 0 0 299.4 21.45 A 152.916 152.916 0 0 0 295.232 29.806 A 180.578 180.578 0 0 0 293.4 33.9 Z M 583.4 60.5 Q 585.9 56.8 587.55 52.75 A 23.947 23.947 0 0 0 588.734 49.052 A 17.735 17.735 0 0 0 589.2 45.1 Q 589.2 42.555 588.545 41.204 A 3.65 3.65 0 0 0 588.35 40.85 A 3.631 3.631 0 0 0 587.806 40.168 A 2.242 2.242 0 0 0 586.2 39.5 Q 584.2 39.5 582.1 42.4 A 10.731 10.731 0 0 0 580.32 46.492 A 15.248 15.248 0 0 0 580 49.7 A 20.988 20.988 0 0 0 580.798 55.366 A 23.378 23.378 0 0 0 580.85 55.55 Q 581.7 58.5 583.4 60.5 Z M 271.591 28.507 A 5.454 5.454 0 0 0 273.4 28.8 A 6.275 6.275 0 0 0 275.938 28.27 A 7.696 7.696 0 0 0 277.85 27.05 Q 278.843 26.203 279.355 25.32 A 3.784 3.784 0 0 0 279.9 23.4 A 5.35 5.35 0 0 0 279.862 22.742 Q 279.714 21.556 279 21 A 2.889 2.889 0 0 0 278.613 20.747 Q 277.798 20.3 276.6 20.3 Q 274.2 20.3 271.75 21.85 Q 270.755 22.48 270.164 23.201 A 3.549 3.549 0 0 0 269.3 25.5 A 4.027 4.027 0 0 0 269.34 26.082 A 2.614 2.614 0 0 0 270.55 28 A 4.951 4.951 0 0 0 271.591 28.507 Z M 122.623 72.848 A 4.372 4.372 0 0 0 123.8 73 A 4.713 4.713 0 0 0 124.642 72.925 A 5.072 5.072 0 0 0 126.3 72.3 A 7.499 7.499 0 0 0 126.838 71.956 A 6.226 6.226 0 0 0 128.25 70.6 Q 128.555 70.194 128.736 69.788 A 2.898 2.898 0 0 0 129 68.6 Q 129 67.2 128.3 66.7 A 2.283 2.283 0 0 0 127.889 66.468 Q 127.562 66.325 127.158 66.258 A 4.664 4.664 0 0 0 126.4 66.2 A 6.37 6.37 0 0 0 125.335 66.291 A 7.532 7.532 0 0 0 123.75 66.75 A 7.398 7.398 0 0 0 123.142 67.03 A 6.097 6.097 0 0 0 121.5 68.25 A 3.855 3.855 0 0 0 121.055 68.812 A 2.705 2.705 0 0 0 120.6 70.3 A 3.359 3.359 0 0 0 120.667 70.991 A 2.101 2.101 0 0 0 121.55 72.35 A 3.593 3.593 0 0 0 122.623 72.848 Z" vector-effect="non-scaling-stroke"/></g></svg>